<?xml version="1.0" encoding="UTF-8" standalone="no"?>
<!-- Created with Inkscape (http://www.inkscape.org/) -->

<svg
   xmlns:dc="http://purl.org/dc/elements/1.1/"
   xmlns:cc="http://creativecommons.org/ns#"
   xmlns:rdf="http://www.w3.org/1999/02/22-rdf-syntax-ns#"
   xmlns:svg="http://www.w3.org/2000/svg"
   xmlns="http://www.w3.org/2000/svg"
   xmlns:xlink="http://www.w3.org/1999/xlink"
   xmlns:sodipodi="http://sodipodi.sourceforge.net/DTD/sodipodi-0.dtd"
   xmlns:inkscape="http://www.inkscape.org/namespaces/inkscape"
   width="48"
   height="48"
   id="svg2"
   version="1.1"
   inkscape:version="0.48.3.1 r9886"
   sodipodi:docname="client-icon.svg"
   inkscape:export-filename="/home/signez/gits/Bubble-Client/client-icon-192.png"
   inkscape:export-xdpi="360"
   inkscape:export-ydpi="360">
  <defs
     id="defs4">
    <linearGradient
       id="linearGradient3779">
      <stop
         style="stop-color:#e49900;stop-opacity:1;"
         offset="0"
         id="stop3781" />
      <stop
         style="stop-color:#fde700;stop-opacity:1;"
         offset="1"
         id="stop3783" />
    </linearGradient>
    <linearGradient
       inkscape:collect="always"
       id="linearGradient3761">
      <stop
         style="stop-color:#ffffff;stop-opacity:0.72463769"
         offset="0"
         id="stop3763" />
      <stop
         style="stop-color:#ffffff;stop-opacity:0"
         offset="1"
         id="stop3765" />
    </linearGradient>
    <linearGradient
       inkscape:collect="always"
       xlink:href="#linearGradient3761"
       id="linearGradient3767"
       x1="23.877163"
       y1="2.1091058"
       x2="24.105282"
       y2="26.974178"
       gradientUnits="userSpaceOnUse" />
    <linearGradient
       inkscape:collect="always"
       xlink:href="#linearGradient3779"
       id="linearGradient3785"
       x1="23.983164"
       y1="45.733829"
       x2="23.983164"
       y2="3.4592047"
       gradientUnits="userSpaceOnUse" />
  </defs>
  <sodipodi:namedview
     id="base"
     pagecolor="#ffffff"
     bordercolor="#666666"
     borderopacity="1.0"
     inkscape:pageopacity="0.0"
     inkscape:pageshadow="2"
     inkscape:zoom="8"
     inkscape:cx="7.9834284"
     inkscape:cy="24.04951"
     inkscape:document-units="px"
     inkscape:current-layer="layer1"
     showgrid="false"
     inkscape:snap-global="false"
     inkscape:window-width="1366"
     inkscape:window-height="715"
     inkscape:window-x="0"
     inkscape:window-y="27"
     inkscape:window-maximized="1">
    <inkscape:grid
       type="xygrid"
       id="grid2985"
       empspacing="5"
       visible="true"
       enabled="true"
       snapvisiblegridlinesonly="true"
       color="#000000"
       opacity="0.1254902"
       empcolor="#000000"
       empopacity="0.25098039" />
  </sodipodi:namedview>
  <metadata
     id="metadata7">
    <rdf:RDF>
      <cc:Work
         rdf:about="">
        <dc:format>image/svg+xml</dc:format>
        <dc:type
           rdf:resource="http://purl.org/dc/dcmitype/StillImage" />
        <dc:title></dc:title>
      </cc:Work>
    </rdf:RDF>
  </metadata>
  <g
     inkscape:label="Calque 1"
     inkscape:groupmode="layer"
     id="layer1"
     transform="translate(0,-1004.3622)">
    <path
       sodipodi:type="arc"
       style="stroke-width:2;stroke-miterlimit:4;stroke-dasharray:none"
       id="path2987"
       sodipodi:cx="24"
       sodipodi:cy="24"
       sodipodi:rx="23"
       sodipodi:ry="23"
       d="M 47,24 A 23,23 0 1 1 1,24 23,23 0 1 1 47,24 z"
       transform="matrix(0.95652174,0,0,0.95652174,1.0434783,1005.4057)" />
    <path
       sodipodi:type="arc"
       style="fill:url(#linearGradient3785);stroke-width:2;stroke-miterlimit:4;stroke-dasharray:none;fill-opacity:1"
       id="path2989"
       sodipodi:cx="23.9375"
       sodipodi:cy="24.0625"
       sodipodi:rx="21.9375"
       sodipodi:ry="21.9375"
       d="m 45.875,24.0625 a 21.9375,21.9375 0 1 1 -43.875,0 21.9375,21.9375 0 1 1 43.875,0 z"
       transform="matrix(0.9116809,0,0,0.9116809,2.1766382,1006.4249)" />
    <path
       transform="matrix(0.8205128,0,0,0.8205128,4.3589744,1008.6187)"
       d="m 45.875,24.0625 a 21.9375,21.9375 0 1 1 -43.875,0 21.9375,21.9375 0 1 1 43.875,0 z"
       sodipodi:ry="21.9375"
       sodipodi:rx="21.9375"
       sodipodi:cy="24.0625"
       sodipodi:cx="23.9375"
       id="path2991"
       style="fill:url(#linearGradient3767);fill-opacity:1;stroke-width:2;stroke-miterlimit:4;stroke-dasharray:none"
       sodipodi:type="arc" />
    <path
       sodipodi:type="arc"
       style="fill:#000000;fill-opacity:1;stroke-width:2;stroke-miterlimit:4;stroke-dasharray:none"
       id="path3769"
       sodipodi:cx="19.622213"
       sodipodi:cy="18.168932"
       sodipodi:rx="2.4748738"
       sodipodi:ry="2.4306796"
       d="m 22.097087,18.168932 a 2.4748738,2.4306796 0 1 1 -4.949747,0 2.4748738,2.4306796 0 1 1 4.949747,0 z"
       transform="matrix(1.616244,0,0,1.6456303,-13.714285,992.46282)" />
    <path
       transform="matrix(2.020305,0,0,2.0570379,-10.642857,984.98798)"
       d="m 22.097087,18.168932 a 2.4748738,2.4306796 0 1 1 -4.949747,0 2.4748738,2.4306796 0 1 1 4.949747,0 z"
       sodipodi:ry="2.4306796"
       sodipodi:rx="2.4748738"
       sodipodi:cy="18.168932"
       sodipodi:cx="19.622213"
       id="path3771"
       style="fill:#000000;fill-opacity:1;stroke-width:2;stroke-miterlimit:4;stroke-dasharray:none"
       sodipodi:type="arc" />
    <path
       transform="matrix(0.80812199,0,0,0.82281512,2.1428579,1007.4125)"
       d="m 22.097087,18.168932 a 2.4748738,2.4306796 0 1 1 -4.949747,0 2.4748738,2.4306796 0 1 1 4.949747,0 z"
       sodipodi:ry="2.4306796"
       sodipodi:rx="2.4748738"
       sodipodi:cy="18.168932"
       sodipodi:cx="19.622213"
       id="path3773"
       style="fill:#ffffff;fill-opacity:1;stroke-width:2;stroke-miterlimit:4;stroke-dasharray:none"
       sodipodi:type="arc" />
    <path
       sodipodi:type="arc"
       style="fill:#ffffff;fill-opacity:1;stroke-width:2;stroke-miterlimit:4;stroke-dasharray:none"
       id="path3775"
       sodipodi:cx="19.622213"
       sodipodi:cy="18.168932"
       sodipodi:rx="2.4748738"
       sodipodi:ry="2.4306796"
       d="m 22.097087,18.168932 a 2.4748738,2.4306796 0 1 1 -4.949747,0 2.4748738,2.4306796 0 1 1 4.949747,0 z"
       transform="matrix(0.80812199,0,0,0.82281512,2.1428579,1007.4125)" />
    <path
       sodipodi:type="arc"
       style="fill:#ffffff;fill-opacity:1;stroke-width:2;stroke-miterlimit:4;stroke-dasharray:none"
       id="path3777"
       sodipodi:cx="19.622213"
       sodipodi:cy="18.168932"
       sodipodi:rx="2.4748738"
       sodipodi:ry="2.4306796"
       d="m 22.097087,18.168932 a 2.4748738,2.4306796 0 1 1 -4.949747,0 2.4748738,2.4306796 0 1 1 4.949747,0 z"
       transform="matrix(1.212183,0,0,1.2342227,5.2142855,999.93766)" />
  </g>
</svg>
